<svg xmlns="http://www.w3.org/2000/svg" viewBox="0 0 22.54 57.35">
  <defs>
    <style>
      .cls-1 {
        fill: #c8b67f;
      }
    </style>
  </defs>
  <title>coppa-mondiali</title>
  <g id="Livello_2" data-name="Livello 2">
    <g id="Livello_1-2" data-name="Livello 1">
      <path class="cls-1" d="M22.54,11.48c-.11-1,0-1.32-.69-1.32h0a10.58,10.58,0,0,0-21.15.21.43.43,0,0,0-.29.21,3.54,3.54,0,0,0,0,3.25,8.48,8.48,0,0,1,1.24,3.55c0,.72-.43,1.14,0,1.7a1.85,1.85,0,0,1,.51,1.26c0,.44.44,5.23,1,6.62a43.36,43.36,0,0,1,1.39,4.17A48.52,48.52,0,0,0,6.37,36c.55,1.13.94,1.25.89,1.83S6,42.51,5.84,43.3a9.39,9.39,0,0,0-.23,1.47.81.81,0,0,0-.46.55A10.11,10.11,0,0,0,5,46.89a4.28,4.28,0,0,0-.81,1,14.74,14.74,0,0,0-1.67,3.84,9.68,9.68,0,0,0,.28,2.7c.19.19-.38,1.2.53,1.65a16.77,16.77,0,0,0,6.9,1.28s5.68.39,7.68-2c.79-.76.56-1.39.56-1.39a6.34,6.34,0,0,0,.12-2.26,26.25,26.25,0,0,0-1.66-4.31S15.18,39.92,15,39.19a5.6,5.6,0,0,1,.11-2.37c.13-.23,1-1.13,1.26-1.62a6.67,6.67,0,0,0,.44-1.72,27.55,27.55,0,0,0,1.32-3.09c.22-.84.21-1.29.36-1.6a13.66,13.66,0,0,0,1-2.15A23.34,23.34,0,0,0,20.1,23c.07-.8.33-2,.38-2.52s-.22-.53,0-.84a5.64,5.64,0,0,0,.91-2.14c.12-.87.08-1.33.16-1.67S22.64,12.52,22.54,11.48Z"/>
    </g>
  </g>
</svg>
