<svg xmlns="http://www.w3.org/2000/svg" viewBox="0 0 18.53 48.15">
  <defs>
    <style>
      .cls-1 {
        fill: #c8b67f;
      }
    </style>
  </defs>
  <title>coppa-europei</title>
  <g id="Livello_2" data-name="Livello 2">
    <g id="Livello_1-2" data-name="Livello 1">
      <path class="cls-1" d="M17.71,27c1.22-5,1-10.54-.14-11.66,0,0,.25-4.7-.2-6.2S15.2,6.42,12.72,7.21L12.67,7a12.29,12.29,0,0,0,2.63-.73c.76-.41.63-1.21.68-1.54s-.05-.38.3-.61.29-.54.26-1,.88-.79-.08-1.64C14.22-.1,9.26,0,9.26,0S4.31-.1,2.07,1.43C1.1,2.28,2,2.57,2,3.07s-.09.81.26,1,.25.28.3.61-.07,1.13.68,1.54A12.33,12.33,0,0,0,5.86,7l-.05.22C3.32,6.42,1.6,7.6,1.15,9.09S1,15.29,1,15.29C-.17,16.41-.4,22,.81,27a28.7,28.7,0,0,0,4.91,9.69,5.33,5.33,0,0,1,.7,1.72,1.37,1.37,0,0,0-.49.64.74.74,0,0,0,.16.69c-.38.1-.41.57-.58,1a1.77,1.77,0,0,1-.77,1,.76.76,0,0,0-.3.89s-2.86,2.12-1.12,3.77,5.94,1.76,5.94,1.76,4.2-.12,5.94-1.76-1.12-3.77-1.12-3.77a.77.77,0,0,0-.29-.89,1.84,1.84,0,0,1-.78-1c-.17-.44-.19-.91-.58-1a.71.71,0,0,0,.16-.69,1.32,1.32,0,0,0-.48-.64,5.19,5.19,0,0,1,.69-1.72A28.7,28.7,0,0,0,17.71,27ZM13.19,9.33c.12-.78,1.2-.62,1.2-.62,1.53.07,1.77,1.38,1.73,2.29s-.31,2.92-.31,2.92a9.08,9.08,0,0,0-2.45-.71,1.17,1.17,0,0,0-.42-.9c0-.06-.1-.8-.1-.8C13.34,11.31,13.06,10.11,13.19,9.33Zm-7.6,3a1.17,1.17,0,0,0-.43.9,9.08,9.08,0,0,0-2.45.71s-.27-2-.31-2.92.2-2.22,1.73-2.29c0,0,1.08-.16,1.21.62s-.15,2,.34,2.18C5.68,11.51,5.6,12.25,5.59,12.31Z"/>
    </g>
  </g>
</svg>
