<svg xmlns="http://www.w3.org/2000/svg" viewBox="0 0 24.06 24.06">
  <defs>
    <style>
      .cls-1 {
        fill: #c8b67f;
      }

      .cls-2 {
        fill: #fff;
      }
    </style>
  </defs>
  <title>medaglia-olimpiadi</title>
  <g id="Livello_2" data-name="Livello 2">
    <g id="Livello_1-2" data-name="Livello 1">
      <g>
        <circle class="cls-1" cx="12.03" cy="12.03" r="12.03"/>
        <g>
          <path class="cls-2" d="M6.27,13.15a2.44,2.44,0,0,0,0,.48.86.86,0,0,0,0,.16,3,3,0,0,0,2.16-2.55,3,3,0,0,0-.62.15A2.39,2.39,0,0,1,6.27,13.15Z"/>
          <path class="cls-2" d="M5.59,13.31H5.35a2.41,2.41,0,1,1,2.46-2.57,2.8,2.8,0,0,1,.59-.1,3.06,3.06,0,1,0-3.05,3.27l.23,0c0-.08,0-.17,0-.26S5.58,13.42,5.59,13.31Z"/>
          <path class="cls-2" d="M7.72,11.41a2.61,2.61,0,0,0,0-.48.86.86,0,0,0,0-.16,2.94,2.94,0,0,0-2.14,2.54,3.3,3.3,0,0,0,.62-.15A2.35,2.35,0,0,1,7.72,11.41Z"/>
          <path class="cls-2" d="M6.19,13.64a2.44,2.44,0,0,1,0-.48,3.3,3.3,0,0,1-.62.15,1.83,1.83,0,0,0,0,.33,2.17,2.17,0,0,0,0,.26,2.91,2.91,0,0,0,.59-.1A.92.92,0,0,1,6.19,13.64Z"/>
          <path class="cls-2" d="M7.81,10.91a2.45,2.45,0,0,1,0,.48,3,3,0,0,1,.62-.15c0-.11,0-.22,0-.33s0-.18,0-.26a2.8,2.8,0,0,0-.59.1Z"/>
          <path class="cls-2" d="M11.7,13.3l.29,0"/>
          <path class="cls-2" d="M12,8.5a2.44,2.44,0,0,1,2.46,2.26,2.83,2.83,0,0,1,.58-.11,3.06,3.06,0,0,0-6.09,0,3.63,3.63,0,0,1,.59.11A2.43,2.43,0,0,1,12,8.5Z"/>
          <path class="cls-2" d="M15,11.25a2.63,2.63,0,0,0-.63.15,2.44,2.44,0,0,1-1.49,1.75,2.54,2.54,0,0,0-.05.49v.15A3,3,0,0,0,15,11.25Z"/>
          <path class="cls-2" d="M12.25,13.3l-.26,0-.29,0c0,.11,0,.22,0,.34a2.26,2.26,0,0,1,0,.26l.29,0,.26,0a2.28,2.28,0,0,1,0-.26C12.23,13.52,12.24,13.41,12.25,13.3Z"/>
          <path class="cls-2" d="M11.07,13.15a2.38,2.38,0,0,1-1.49-1.71A2.45,2.45,0,0,0,9,11.28a3,3,0,0,0,2.15,2.51.76.76,0,0,0,0-.15A2.54,2.54,0,0,0,11.07,13.15Z"/>
          <path class="cls-2" d="M16.17,11.37a2.63,2.63,0,0,0-.62-.13,3,3,0,0,0,2.23,2.57,1,1,0,0,0,0-.17,2.42,2.42,0,0,0-.05-.47A2.41,2.41,0,0,1,16.17,11.37Z"/>
          <path class="cls-2" d="M18.59,7.91a3,3,0,0,0-3.05,2.73,3.83,3.83,0,0,1,.59.1,2.46,2.46,0,1,1,2.46,2.58h-.23a1.83,1.83,0,0,1,0,.33,2.44,2.44,0,0,1,0,.27h.22a3,3,0,1,0,0-6Z"/>
          <path class="cls-2" d="M8.94,10.65l-.28,0H8.42a2.45,2.45,0,0,1,0,.27c0,.11,0,.22,0,.33h.24a1.46,1.46,0,0,1,.29,0c0-.11,0-.23,0-.34A2.17,2.17,0,0,1,8.94,10.65Z"/>
          <path class="cls-2" d="M8.66,16.05A2.44,2.44,0,0,1,6.2,13.8a2.91,2.91,0,0,1-.59.1,3.06,3.06,0,0,0,6.09,0,2.93,2.93,0,0,1-.59-.11A2.42,2.42,0,0,1,8.66,16.05Z"/>
          <path class="cls-2" d="M9.53,10.76c0,.05,0,.1,0,.15a2,2,0,0,0,.06.49,2.4,2.4,0,0,1,1.49,1.72,2.45,2.45,0,0,0,.62.15A3,3,0,0,0,9.53,10.76Z"/>
          <path class="cls-2" d="M11.7,13.3a2.63,2.63,0,0,1-.63-.15,2.54,2.54,0,0,1,0,.49.76.76,0,0,1,0,.15,2.93,2.93,0,0,0,.59.11,2.26,2.26,0,0,0,0-.26C11.71,13.52,11.71,13.41,11.7,13.3Z"/>
          <path class="cls-2" d="M9.52,10.91c0-.05,0-.1,0-.15a2.93,2.93,0,0,0-.59-.11,2.17,2.17,0,0,0,0,.26c0,.11,0,.23,0,.34a2.23,2.23,0,0,1,.63.15A2,2,0,0,1,9.52,10.91Z"/>
          <path class="cls-2" d="M15.32,16.05a2.45,2.45,0,0,1-2.46-2.26,3.5,3.5,0,0,1-.58.11,3.06,3.06,0,0,0,6.09,0,3.83,3.83,0,0,1-.59-.1A2.45,2.45,0,0,1,15.32,16.05Z"/>
          <path class="cls-2" d="M14.4,11.4a2,2,0,0,0,0-.49v-.15a3,3,0,0,0-2.17,2.54,2.63,2.63,0,0,0,.63-.15A2.44,2.44,0,0,1,14.4,11.4Z"/>
          <path class="cls-2" d="M15,11.25a1.42,1.42,0,0,1,.29,0h.23c0-.11,0-.22,0-.33a2.44,2.44,0,0,1,0-.27h-.22l-.29,0a2.11,2.11,0,0,1,0,.26C15.05,11,15,11.14,15,11.25Z"/>
          <path class="cls-2" d="M16.17,11.37a2.43,2.43,0,0,1,1.57,1.8,2.23,2.23,0,0,0,.62.14,3,3,0,0,0-2.23-2.57c0,.06,0,.11,0,.17A2.31,2.31,0,0,0,16.17,11.37Z"/>
          <path class="cls-2" d="M12.86,13.64a2.54,2.54,0,0,1,.05-.49,2.63,2.63,0,0,1-.63.15c0,.11,0,.22,0,.34a2.28,2.28,0,0,0,0,.26,3.5,3.5,0,0,0,.58-.11Z"/>
          <path class="cls-2" d="M14.45,10.91a2,2,0,0,1,0,.49,2.63,2.63,0,0,1,.63-.15c0-.11,0-.23,0-.34a2.11,2.11,0,0,0,0-.26,2.83,2.83,0,0,0-.58.11Z"/>
          <path class="cls-2" d="M15.55,11.24a2.63,2.63,0,0,1,.62.13,2.31,2.31,0,0,1-.05-.46c0-.06,0-.11,0-.17a3.83,3.83,0,0,0-.59-.1,2.44,2.44,0,0,0,0,.27C15.53,11,15.54,11.13,15.55,11.24Z"/>
          <path class="cls-2" d="M18.36,13.31a2.23,2.23,0,0,1-.62-.14,2.42,2.42,0,0,1,.05.47,1,1,0,0,1,0,.17,3.83,3.83,0,0,0,.59.1,2.44,2.44,0,0,0,0-.27A1.83,1.83,0,0,0,18.36,13.31Z"/>
        </g>
      </g>
    </g>
  </g>
</svg>
